# xmcd
#
# Track frame offsets:
#	150
#	24522
#	45155
#	64122
#	77878
#	93481
#	110638
#	135268
#	155864
#	177167
#	191992
#
# Disc length: 2878 seconds
#
# Revision: 0
# Processed by: cddbd v1.5.1PL0 Copyright (c) Steve Scherf et al.
# Submitted via: dBpowerAMP V4.0
#
DISCID=8f0b3c0b
DTITLE=Gary Rex Tanner - Feel The Heat
DYEAR=1996
DGENRE=Blues
TTITLE0=Introducing Mr T
TTITLE1=Feel The Heat
TTITLE2=Marguerita
TTITLE3=Comin' After You
TTITLE4=Headshrinker
TTITLE5=A Taste Of My Love
TTITLE6=Low Down and Dirty
TTITLE7=Sugar Baby
TTITLE8=Secret Love
TTITLE9=Waitin' For The Call
TTITLE10=Missin' Mississippi
EXTD=
EXTT0=
EXTT1=
EXTT2=
EXTT3=
EXTT4=
EXTT5=
EXTT6=
EXTT7=
EXTT8=
EXTT9=
EXTT10=
PLAYORDER=
